<svg width="48" height="48" viewBox="0 0 48 48" fill="none" xmlns="http://www.w3.org/2000/svg">
<path d="M40.5344 9.92642C34.1231 5.10708 25.6024 4.00658 18.5238 5.46345C16.1089 2.70201 13.0403 0.882648 9.72949 0.249267C6.41866 -0.384114 3.0238 0.198756 0 1.91974C0 1.91974 6.08967 7.80734 5.10067 12.9648C-2.10943 21.3296 1.31793 30.6371 5.10067 35.0339C6.08967 40.1904 0 46.078 0 46.078C3.02209 47.797 6.41387 48.3822 9.7233 47.7554C13.0327 47.1287 16.1026 45.3199 18.5238 42.57C25.5863 44.0138 34.107 42.9264 40.5337 38.0984C50.4721 30.8794 50.5044 17.1864 40.5337 9.92555L40.5344 9.92642ZM24.5151 38.0522C22.0392 38.0607 19.5723 37.6986 17.1728 36.9743L15.5252 38.7841C14.6048 39.7982 13.5803 40.6706 12.476 41.3807C11.1231 42.1531 9.66276 42.6255 8.16679 42.7748C8.24976 42.6058 8.32318 42.4376 8.39734 42.2781C10.0454 38.8015 10.4899 35.6824 9.73069 32.9209C7.01993 30.4925 5.39876 27.3897 5.39876 23.9967C5.39876 16.2227 13.9606 9.92381 24.5165 9.92381C35.0725 9.92381 43.6343 16.2218 43.6343 23.9967C43.6343 31.7716 35.071 38.0522 24.5151 38.0522ZM15.3453 27.3461C14.6041 27.3758 13.8831 27.0563 13.3398 26.4573C12.7964 25.8584 12.4748 25.0286 12.4451 24.1492C12.3871 19.8457 18.0987 19.7516 18.1552 24.0455V24.0934C18.1575 24.5205 18.0867 24.9436 17.9471 25.3372C17.8075 25.7308 17.602 26.0867 17.3431 26.3833C16.8068 26.9983 16.0911 27.3438 15.3453 27.3479V27.3461ZM21.493 24.1492C21.4269 19.8457 27.1377 19.742 27.2038 24.0368V24.0943C27.2339 28.3682 21.5569 28.4144 21.4908 24.1492H21.493ZM33.441 27.3461C32.6998 27.3758 31.9787 27.0563 31.4352 26.4574C30.8917 25.8584 30.5699 25.0287 30.5401 24.1492C30.4828 19.8457 36.1937 19.7516 36.2509 24.0455V24.0934C36.2546 24.5206 36.1848 24.9442 36.046 25.3383C35.9071 25.7325 35.7021 26.0889 35.4433 26.3859C34.9059 27.0004 34.1888 27.3439 33.4425 27.3444L33.441 27.3461Z" fill="black"/>
</svg>
