<svg width="1008" height="420" viewBox="0 0 1008 420" fill="none" xmlns="http://www.w3.org/2000/svg">
<g clip-path="url(#clip0)">
<rect width="1008" height="420" fill="white"/>
<rect x="0.5" y="0.5" width="1007" height="418" fill="#324AA4" stroke="black"/>
<path d="M23.04 105.584H71.712C91.872 105.584 109.248 109.52 123.84 117.392C138.432 125.072 149.568 136.304 157.248 151.088C164.928 165.872 168.768 183.536 168.768 204.08C168.768 234.8 160.224 258.8 143.136 276.08C126.048 293.36 102.24 302 71.712 302H23.04V105.584ZM71.136 282.416C94.56 282.416 112.896 275.984 126.144 263.12C139.392 250.256 146.016 230.576 146.016 204.08C146.016 177.392 139.392 157.616 126.144 144.752C112.896 131.888 94.56 125.456 71.136 125.456H44.64V282.416H71.136ZM207.252 302V105.584H317.268V123.728H228.852V192.272H297.972V209.84H228.852V284.144H318.132V302H207.252ZM474.208 302L454.048 246.992H372.544L354.4 302H332.8L402.496 105.584H422.656L494.368 302H474.208ZM379.168 229.136H447.424L412.288 133.808L379.168 229.136ZM520.565 302V105.584H627.701V123.728H542.165V192.272H605.525V209.84H542.165V302H520.565Z" fill="#E1E1E1"/>
<line x1="565.931" y1="201.061" x2="835.931" y2="199" stroke="#E1E1E1" stroke-width="18"/>
<line x1="840.619" y1="201.414" x2="799.653" y2="245.253" stroke="#E1E1E1" stroke-width="10"/>
<line x1="838.207" y1="197.941" x2="795.277" y2="156.023" stroke="#E1E1E1" stroke-width="10"/>
<path d="M792.513 253.163L796.119 241.633L803.384 248.644L792.513 253.163Z" fill="#E1E1E1"/>
<path d="M787.459 148.678L798.902 152.539L791.746 159.639L787.459 148.678Z" fill="#E1E1E1"/>
<path d="M849.794 201.531L834.626 215.285L835.452 188.768L849.794 201.531Z" fill="#E1E1E1"/>
<path d="M654.413 236.397L663.11 226.001L667.612 234.834L654.413 236.397Z" fill="#E1E1E1"/>
<path d="M730.436 236.068L736.407 227.003L740.952 235.923L730.436 236.068Z" fill="#E1E1E1"/>
<g filter="url(#filter0_d)">
<path d="M899.598 173.377C898.68 169.51 903.353 166.816 906.239 169.549L917.522 180.228C918.807 181.444 920.737 181.672 922.269 180.789L935.311 173.271C938.596 171.378 942.427 174.692 941.025 178.215L935.017 193.32C934.412 194.841 934.795 196.578 935.984 197.703L947.995 209.072C950.835 211.76 948.529 216.505 944.662 215.935L930.186 213.799C928.352 213.529 926.571 214.555 925.886 216.278L920.478 229.874C919.033 233.507 913.772 233.123 912.869 229.319L909.052 213.228C908.674 211.635 907.363 210.433 905.744 210.194L889.662 207.822C885.91 207.268 884.963 202.292 888.248 200.399L901.289 192.882C902.822 191.998 903.592 190.214 903.184 188.493L899.598 173.377Z" fill="white"/>
<path d="M905.896 169.912L917.178 180.591C918.623 181.959 920.795 182.215 922.519 181.222L935.56 173.705C938.435 172.048 941.787 174.947 940.561 178.03L934.553 193.135C933.872 194.847 934.303 196.8 935.641 198.067L947.652 209.436C950.136 211.787 948.119 215.939 944.735 215.44L930.259 213.305C928.195 213 926.192 214.155 925.421 216.093L920.014 229.69C918.749 232.868 914.145 232.532 913.356 229.204L909.538 213.112C909.113 211.32 907.639 209.968 905.817 209.699L889.735 207.327C886.452 206.843 885.623 202.489 888.498 200.832L901.539 193.315C903.263 192.321 904.13 190.313 903.67 188.377L900.084 173.261C899.281 169.878 903.37 167.521 905.896 169.912Z" stroke="#07699F"/>
</g>
<g filter="url(#filter1_d)">
<path d="M880.16 125.359L922.196 166.153C922.998 166.931 924.218 167.083 925.186 166.525L970.613 140.34C971.831 139.638 973.258 140.845 972.768 142.162L953.377 194.333C953.032 195.262 953.268 196.307 953.979 196.998L996.572 238.332C997.629 239.358 996.727 241.135 995.275 240.887L941.649 231.729C940.465 231.527 939.304 232.196 938.885 233.322L919.931 284.316C919.418 285.697 917.428 285.587 917.07 284.157L902.651 226.584C902.41 225.622 901.624 224.894 900.647 224.727L845.783 215.357C844.398 215.121 844.07 213.281 845.287 212.579L890.715 186.394C891.682 185.837 892.163 184.704 891.891 183.621L877.66 126.799C877.294 125.335 879.077 124.307 880.16 125.359Z" stroke="white"/>
</g>
<line x1="731.236" y1="197.472" x2="665.236" y2="230.472" stroke="#E1E1E1" stroke-width="10"/>
<line x1="805.551" y1="198.489" x2="738.551" y2="231.489" stroke="#E1E1E1" stroke-width="10"/>
<path d="M732.293 151.133L742.743 152.62L736.361 160.332L732.293 151.133Z" fill="#E1E1E1"/>
<line y1="-5" x2="66.6812" y2="-5" transform="matrix(-0.778829 -0.627236 0.640384 -0.768055 794.646 194.523)" stroke="#E1E1E1" stroke-width="10"/>
<path d="M662.038 148.324L675.286 151.05L669.759 159.116L662.038 148.324Z" fill="#E1E1E1"/>
<line x1="732.922" y1="197.233" x2="672.375" y2="155.054" stroke="#E1E1E1" stroke-width="10"/>
<path d="M607.7 376V366.76H616.94V289.76H607.7V280.52H636.68V289.76H627.44V366.76H636.68V376H607.7ZM684.474 308.24C689.047 308.24 693.247 309.173 697.074 311.04C700.994 312.907 704.074 315.66 706.314 319.3C708.647 322.94 709.814 327.233 709.814 332.18V376H700.294V336.38C700.294 323.407 694.507 316.92 682.934 316.92C676.214 316.92 671.174 319.3 667.814 324.06C664.454 328.82 662.774 335.213 662.774 343.24V376H653.254V310.48H662.774V321.4C665.014 317.2 667.954 313.98 671.594 311.74C675.327 309.407 679.62 308.24 684.474 308.24ZM756.869 378.24C750.522 378.24 744.876 376.747 739.929 373.76C734.982 370.773 731.109 366.62 728.309 361.3C725.509 355.98 724.109 349.96 724.109 343.24C724.109 336.52 725.462 330.5 728.169 325.18C730.969 319.86 734.842 315.707 739.789 312.72C744.736 309.733 750.336 308.24 756.589 308.24C761.909 308.24 766.529 309.407 770.449 311.74C774.462 313.98 778.102 317.2 781.369 321.4L774.369 326.86C769.796 320.233 763.869 316.92 756.589 316.92C752.202 316.92 748.236 318.04 744.689 320.28C741.236 322.52 738.529 325.647 736.569 329.66C734.609 333.673 733.629 338.2 733.629 343.24C733.629 348.28 734.609 352.807 736.569 356.82C738.529 360.833 741.236 363.96 744.689 366.2C748.236 368.44 752.202 369.56 756.589 369.56C761.069 369.56 764.756 368.813 767.649 367.32C770.542 365.733 773.156 363.447 775.489 360.46L782.909 365.64C779.829 369.467 776.002 372.547 771.429 374.88C766.949 377.12 762.096 378.24 756.869 378.24ZM800.488 377.12C798.434 377.12 796.661 376.373 795.168 374.88C793.768 373.387 793.068 371.567 793.068 369.42C793.068 367.367 793.768 365.593 795.168 364.1C796.661 362.607 798.434 361.86 800.488 361.86C802.634 361.86 804.454 362.607 805.948 364.1C807.441 365.593 808.188 367.413 808.188 369.56C808.188 371.613 807.441 373.387 805.948 374.88C804.454 376.373 802.634 377.12 800.488 377.12Z" fill="#F0F0F0"/>
</g>
<defs>
<filter id="filter0_d" x="870.488" y="153.422" width="93.5256" height="93.8105" filterUnits="userSpaceOnUse" color-interpolation-filters="sRGB">
<feFlood flood-opacity="0" result="BackgroundImageFix"/>
<feColorMatrix in="SourceAlpha" type="matrix" values="0 0 0 0 0 0 0 0 0 0 0 0 0 0 0 0 0 0 127 0"/>
<feOffset dy="4"/>
<feGaussianBlur stdDeviation="2"/>
<feColorMatrix type="matrix" values="0 0 0 0 0 0 0 0 0 0 0 0 0 0 0 0 0 0 0.25 0"/>
<feBlend mode="normal" in2="BackgroundImageFix" result="effect1_dropShadow"/>
<feBlend mode="normal" in="SourceGraphic" in2="effect1_dropShadow" result="shape"/>
</filter>
<filter id="filter1_d" x="809.717" y="87.582" width="216.712" height="220.88" filterUnits="userSpaceOnUse" color-interpolation-filters="sRGB">
<feFlood flood-opacity="0" result="BackgroundImageFix"/>
<feColorMatrix in="SourceAlpha" type="matrix" values="0 0 0 0 0 0 0 0 0 0 0 0 0 0 0 0 0 0 127 0"/>
<feOffset dy="4"/>
<feGaussianBlur stdDeviation="2"/>
<feColorMatrix type="matrix" values="0 0 0 0 0 0 0 0 0 0 0 0 0 0 0 0 0 0 0.25 0"/>
<feBlend mode="normal" in2="BackgroundImageFix" result="effect1_dropShadow"/>
<feBlend mode="normal" in="SourceGraphic" in2="effect1_dropShadow" result="shape"/>
</filter>
<clipPath id="clip0">
<rect width="1008" height="420" fill="white"/>
</clipPath>
</defs>
</svg>
