<svg width="44" height="44" viewBox="0 0 44 44" fill="none" xmlns="http://www.w3.org/2000/svg">
<g clip-path="url(#clip0)">
<g clip-path="url(#clip1)">
<path d="M14.1565 38.2502C31.1335 38.2502 40.4218 25.7448 40.4218 14.9033C40.4218 14.5518 40.413 14.1924 40.3954 13.8408C42.2023 12.6793 43.7616 11.2407 45 9.59241C43.3172 10.2579 41.5306 10.6925 39.7011 10.8815C41.6274 9.85509 43.0697 8.2427 43.7607 6.34319C41.9485 7.29784 39.9667 7.97126 37.9002 8.33459C36.5078 7.01951 34.6668 6.14877 32.6619 5.857C30.657 5.56522 28.5997 5.86866 26.8083 6.7204C25.0168 7.57215 23.5909 8.92475 22.751 10.5691C21.9111 12.2134 21.7039 14.0579 22.1616 15.8174C18.4922 15.6537 14.9024 14.8064 11.625 13.3304C8.34755 11.8544 5.45567 9.78264 3.13682 7.24944C1.95825 9.05565 1.59761 11.193 2.12818 13.2271C2.65876 15.2611 4.04074 17.0393 5.99326 18.2002C4.52743 18.1589 3.0937 17.808 1.81055 17.1768V17.2783C1.80923 19.1738 2.54643 21.0112 3.89683 22.4782C5.24723 23.9452 7.12748 24.9512 9.21797 25.3252C7.8601 25.6555 6.43497 25.7036 5.05283 25.4658C5.64273 27.096 6.79045 28.5217 8.33582 29.5441C9.88119 30.5665 11.7471 31.1346 13.6731 31.169C10.4033 33.4521 6.36408 34.6905 2.20605 34.6846C1.46866 34.6836 0.731998 34.6434 0 34.5643C4.22411 36.9732 9.13787 38.2526 14.1565 38.2502Z" fill="black"/>
</g>
</g>
<defs>
<clipPath id="clip0">
<rect width="44" height="44" fill="white"/>
</clipPath>
<clipPath id="clip1">
<rect width="45" height="40" fill="white" transform="translate(0 2)"/>
</clipPath>
</defs>
</svg>
