<svg width="44" height="44" viewBox="0 0 44 44" fill="none" xmlns="http://www.w3.org/2000/svg">
<path d="M18.9998 26.3613L26.6667 22L18.9998 17.6387V26.3613Z" fill="black"/>
<path d="M22 0C9.84973 0 0 9.84973 0 22C0 34.1503 9.84973 44 22 44C34.1503 44 44 34.1503 44 22C44 9.84973 34.1503 0 22 0ZM36.0538 29.1062C35.888 29.7303 35.5612 30.3 35.106 30.7581C34.6508 31.2162 34.0833 31.5467 33.4602 31.7165C31.173 32.3331 22 32.3331 22 32.3331C22 32.3331 12.827 32.3331 10.5398 31.7165C9.91672 31.5467 9.34918 31.2162 8.894 30.7581C8.43882 30.3 8.11198 29.7303 7.94621 29.1062C7.33348 26.8039 7.33348 22 7.33348 22C7.33348 22 7.33348 17.1961 7.94621 14.8938C8.11198 14.2697 8.43882 13.7 8.894 13.2419C9.34918 12.7838 9.91672 12.4533 10.5398 12.2835C12.827 11.6669 22 11.6669 22 11.6669C22 11.6669 31.173 11.6669 33.4602 12.2835C34.0833 12.4533 34.6508 12.7838 35.106 13.2419C35.5612 13.7 35.888 14.2697 36.0538 14.8938C36.6665 17.1961 36.6665 22 36.6665 22C36.6665 22 36.6665 26.8039 36.0538 29.1062Z" fill="black"/>
</svg>
